<?xml version="1.0"?>
<svg width="80" height="76" xmlns="http://www.w3.org/2000/svg" xmlns:svg="http://www.w3.org/2000/svg">
 <defs>
  <filter color-interpolation-filters="sRGB" filterUnits="userSpaceOnUse" height="76" id="filter0_dd_2_358" width="80" x="0" y="0">
   <feFlood flood-opacity="0" result="BackgroundImageFix"/>
   <feColorMatrix in="SourceAlpha" result="hardAlpha" type="matrix" values="0 0 0 0 0 0 0 0 0 0 0 0 0 0 0 0 0 0 127 0"/>
   <feOffset dx="4" dy="2"/>
   <feGaussianBlur stdDeviation="8"/>
   <feColorMatrix type="matrix" values="0 0 0 0 0.534167 0 0 0 0 0.645967 0 0 0 0 0.749167 0 0 0 0.48 0"/>
   <feBlend in2="BackgroundImageFix"/>
   <feColorMatrix in="SourceAlpha" result="hardAlpha" type="matrix" values="0 0 0 0 0 0 0 0 0 0 0 0 0 0 0 0 0 0 127 0"/>
   <feOffset dx="-4" dy="-2"/>
   <feGaussianBlur stdDeviation="8"/>
   <feColorMatrix type="matrix" values="0 0 0 0 1 0 0 0 0 1 0 0 0 0 1 0 0 0 1 0"/>
   <feBlend in2="effect1_dropShadow_2_358"/>
   <feBlend in="SourceGraphic" in2="effect2_dropShadow_2_358"/>
  </filter>
 </defs>
 <g class="layer">
  <title>Layer 1</title>
  <g id="svg_6">
   <g filter="url(#filter0_dd_2_358)" id="svg_1" opacity="0.1">
    <rect fill="#7264D6" height="75.51" id="svg_2" rx="8" width="79.59" x="0.2" y="0.24"/>
   </g>
   <path d="m48.74,27.32l-3.52,-5.72c-0.16,-0.26 -0.44,-0.47 -0.76,-0.55c-0.32,-0.08 -0.68,-0.04 -0.96,0.13l-10.76,6.12l16,0.02z" fill="#7264D6" id="svg_3"/>
   <path d="m25.08,28.88c-0.92,0 -1.65,-0.72 -1.65,-1.59c0,-0.87 0.74,-1.57 1.65,-1.57l5.59,0l5.53,-3.15l-11.12,0c-2.45,0 -4.5,1.7 -4.89,3.95c-0.04,0.11 -0.08,0.25 -0.08,0.38l0,23.99c0,2.61 2.23,4.72 4.97,4.72l28.2,0c1.81,0 3.3,-1.42 3.3,-3.13l0,-3.15l-4.14,0c-4.12,0 -7.46,-3.17 -7.46,-7.08c0,-3.91 3.34,-7.08 7.46,-7.08l4.14,0l0,-3.15c0,-1.72 -1.49,-3.13 -3.3,-3.13l-28.2,0zm26.52,-3.15c0,-1.59 -1.23,-2.91 -2.87,-3.11l2.87,4.68l0,-1.57z" fill="#7264D6" id="svg_4"/>
   <path d="m58.64,37.53l-6.21,0c-2.75,0 -4.97,2.11 -4.97,4.72c0,2.61 2.23,4.72 4.97,4.72l6.21,0c0.7,0 1.25,-0.53 1.25,-1.19l0,-7.08c0,-0.64 -0.56,-1.17 -1.25,-1.17zm-6.21,6.29c-0.92,0 -1.65,-0.7 -1.65,-1.57c0,-0.87 0.74,-1.57 1.65,-1.57c0.92,0 1.65,0.7 1.65,1.57c0,0.87 -0.74,1.57 -1.65,1.57z" fill="#7264D6" id="svg_5"/>
  </g>
 </g>
</svg>