<?xml version="1.0"?>
<svg width="80" height="76" xmlns="http://www.w3.org/2000/svg" xmlns:svg="http://www.w3.org/2000/svg">
 <defs>
  <filter color-interpolation-filters="sRGB" filterUnits="userSpaceOnUse" height="76" id="filter0_dd_2_371" width="80" x="0" y="0">
   <feFlood flood-opacity="0" result="BackgroundImageFix"/>
   <feColorMatrix in="SourceAlpha" result="hardAlpha" type="matrix" values="0 0 0 0 0 0 0 0 0 0 0 0 0 0 0 0 0 0 127 0"/>
   <feOffset dx="4" dy="2"/>
   <feGaussianBlur stdDeviation="8"/>
   <feColorMatrix type="matrix" values="0 0 0 0 0.534167 0 0 0 0 0.645967 0 0 0 0 0.749167 0 0 0 0.48 0"/>
   <feBlend in2="BackgroundImageFix"/>
   <feColorMatrix in="SourceAlpha" result="hardAlpha" type="matrix" values="0 0 0 0 0 0 0 0 0 0 0 0 0 0 0 0 0 0 127 0"/>
   <feOffset dx="-4" dy="-2"/>
   <feGaussianBlur stdDeviation="8"/>
   <feColorMatrix type="matrix" values="0 0 0 0 1 0 0 0 0 1 0 0 0 0 1 0 0 0 1 0"/>
   <feBlend in2="effect1_dropShadow_2_371"/>
   <feBlend in="SourceGraphic" in2="effect2_dropShadow_2_371"/>
  </filter>
 </defs>
 <g class="layer">
  <title>Layer 1</title>
  <g id="svg_6">
   <g filter="url(#filter0_dd_2_371)" id="svg_1" opacity="0.1">
    <rect fill="#439F90" height="76.6" id="svg_2" rx="8" width="79.8" x="0" y="0"/>
   </g>
   <path d="m43.47,38.09c5.45,0 9.88,-4.23 9.88,-9.46c0,-5.23 -4.43,-9.48 -9.88,-9.48c-5.45,0 -9.88,4.25 -9.88,9.48c0,5.23 4.43,9.46 9.88,9.46zm-1.18,-15.03l0,-0.27c0,-0.61 0.54,-1.11 1.18,-1.11c0.64,0 1.18,0.5 1.18,1.11l0,0.27c1.38,0.29 2.43,1.47 2.43,2.89c0,0.63 -0.52,1.13 -1.18,1.13c-0.64,0 -1.16,-0.5 -1.16,-1.13c0,-0.38 -0.34,-0.71 -0.76,-0.71l-1.04,0c-0.42,0 -0.76,0.33 -0.76,0.71c0,0.23 0.12,0.44 0.3,0.57l0.98,0.69l2.37,1.69c0.76,0.56 1.24,1.44 1.24,2.36l0,0.02c0,0.79 -0.3,1.53 -0.88,2.11c-0.44,0.4 -0.98,0.69 -1.56,0.8l0,0.27c0,0.61 -0.54,1.13 -1.18,1.13c-0.64,0 -1.18,-0.52 -1.18,-1.13l0,-0.27c-0.56,-0.11 -1.08,-0.38 -1.52,-0.79c-0.58,-0.56 -0.9,-1.28 -0.92,-2.09c0,-0.61 0.52,-1.13 1.18,-1.13l0,0c0.64,0 1.16,0.5 1.18,1.11c0,0.4 0.32,0.73 0.74,0.73c0.66,0 0.42,0 1.06,-0.02c0.42,0 0.74,-0.33 0.74,-0.71l0,-0.02c0,-0.23 -0.12,-0.44 -0.3,-0.57l-0.98,-0.69l-2.35,-1.67c-0.8,-0.57 -1.26,-1.46 -1.26,-2.39c0,-1.42 1.06,-2.6 2.43,-2.89z" fill="#439F90" id="svg_3"/>
   <path d="m27.47,43.49c-0.3,-0.5 -0.96,-0.67 -1.48,-0.38l-5.51,3.04c-0.52,0.29 -0.7,0.94 -0.4,1.44l5.63,9.35c0.3,0.5 0.96,0.67 1.5,0.38l5.49,-3.06c0.52,-0.29 0.7,-0.92 0.4,-1.42l-5.63,-9.35z" fill="#439F90" id="svg_4"/>
   <path d="m58.99,41.63c-0.54,-0.71 -1.56,-0.88 -2.29,-0.36c-2.23,1.53 -6.5,4.5 -6.84,4.73c-0.16,0.13 -0.32,0.25 -0.5,0.34c-0.66,0.4 -1.46,0.63 -2.25,0.63l-5.61,0c-0.64,0 -1.18,-0.5 -1.18,-1.13c0,-0.61 0.54,-1.11 1.18,-1.11l5.98,0c0.88,0 1.6,-0.71 1.56,-1.55c-0.04,-0.8 -0.76,-1.44 -1.6,-1.44l-4.55,0c-0.32,-0.31 -0.66,-0.59 -1.02,-0.86c-1.24,-0.88 -2.77,-1.4 -4.45,-1.4c-2.95,0 -5.91,1.8 -7.14,4.19l4.79,7.95l8.98,0c1.76,0 3.49,-0.44 5.01,-1.28c0.54,-0.29 1.1,-0.63 1.72,-1.05c2.57,-1.78 7.84,-5.48 7.84,-5.48c0.74,-0.5 0.9,-1.49 0.38,-2.18z" fill="#439F90" id="svg_5"/>
  </g>
 </g>
</svg>