<?xml version="1.0"?>
<svg width="80" height="76" xmlns="http://www.w3.org/2000/svg" xmlns:svg="http://www.w3.org/2000/svg">
 <defs>
  <filter color-interpolation-filters="sRGB" filterUnits="userSpaceOnUse" height="76" id="filter0_dd_2_396" width="80" x="0" y="0">
   <feFlood flood-opacity="0" result="BackgroundImageFix"/>
   <feColorMatrix in="SourceAlpha" result="hardAlpha" type="matrix" values="0 0 0 0 0 0 0 0 0 0 0 0 0 0 0 0 0 0 127 0"/>
   <feOffset dx="4" dy="2"/>
   <feGaussianBlur stdDeviation="8"/>
   <feColorMatrix type="matrix" values="0 0 0 0 0.534167 0 0 0 0 0.645967 0 0 0 0 0.749167 0 0 0 0.48 0"/>
   <feBlend in2="BackgroundImageFix"/>
   <feColorMatrix in="SourceAlpha" result="hardAlpha" type="matrix" values="0 0 0 0 0 0 0 0 0 0 0 0 0 0 0 0 0 0 127 0"/>
   <feOffset dx="-4" dy="-2"/>
   <feGaussianBlur stdDeviation="8"/>
   <feColorMatrix type="matrix" values="0 0 0 0 1 0 0 0 0 1 0 0 0 0 1 0 0 0 1 0"/>
   <feBlend in2="effect1_dropShadow_2_396"/>
   <feBlend in="SourceGraphic" in2="effect2_dropShadow_2_396"/>
  </filter>
 </defs>
 <g class="layer">
  <title>Layer 1</title>
  <g id="Group 17406">
   <g filter="url(#filter0_dd_2_396)" id="Rectangle 217" opacity="0.1">
    <rect fill="#4AB5E3" height="76" id="svg_1" rx="8" width="78" x="0" y="0"/>
   </g>
   <g id="income">
    <path d="m42.49,37.79c5.32,0 9.65,-4.2 9.65,-9.39c0,-5.19 -4.33,-9.4 -9.65,-9.4c-5.32,0 -9.65,4.22 -9.65,9.4c0,5.19 4.33,9.39 9.65,9.39zm-1.15,-14.91l0,-0.27c0,-0.61 0.53,-1.1 1.15,-1.1c0.62,0 1.15,0.49 1.15,1.1l0,0.27c1.35,0.28 2.38,1.46 2.38,2.87c0,0.63 -0.51,1.12 -1.15,1.12c-0.62,0 -1.13,-0.49 -1.13,-1.12c0,-0.38 -0.33,-0.7 -0.74,-0.7l-1.01,0c-0.41,0 -0.74,0.32 -0.74,0.7c0,0.23 0.12,0.44 0.29,0.57l0.96,0.68l2.32,1.67c0.74,0.55 1.21,1.42 1.21,2.34l0,0.02c0,0.78 -0.29,1.52 -0.86,2.09c-0.43,0.4 -0.96,0.68 -1.52,0.8l0,0.27c0,0.61 -0.53,1.12 -1.15,1.12c-0.62,0 -1.15,-0.51 -1.15,-1.12l0,-0.27c-0.55,-0.11 -1.05,-0.38 -1.48,-0.78c-0.57,-0.55 -0.88,-1.27 -0.9,-2.07c0,-0.61 0.51,-1.12 1.15,-1.12l0,0c0.62,0 1.13,0.49 1.15,1.1c0,0.4 0.31,0.72 0.72,0.72c0.64,0 0.41,0 1.03,-0.02c0.41,0 0.72,-0.32 0.72,-0.7l0,-0.02c0,-0.23 -0.12,-0.44 -0.29,-0.57l-0.96,-0.68l-2.3,-1.65c-0.78,-0.57 -1.23,-1.44 -1.23,-2.37c0,-1.41 1.03,-2.58 2.38,-2.87z" fill="#4AB5E3" id="Vector"/>
    <path d="m26.85,43.15c-0.29,-0.49 -0.94,-0.66 -1.44,-0.38l-5.38,3.02c-0.51,0.28 -0.68,0.93 -0.39,1.42l5.5,9.27c0.29,0.49 0.94,0.66 1.46,0.38l5.36,-3.04c0.51,-0.28 0.68,-0.91 0.39,-1.41l-5.5,-9.27z" fill="#4AB5E3" id="Vector_2"/>
    <path d="m57.66,41.31c-0.53,-0.7 -1.52,-0.87 -2.24,-0.36c-2.18,1.52 -6.36,4.46 -6.69,4.69c-0.16,0.13 -0.31,0.25 -0.49,0.34c-0.64,0.4 -1.42,0.63 -2.2,0.63l-5.48,0c-0.62,0 -1.15,-0.49 -1.15,-1.12c0,-0.61 0.53,-1.1 1.15,-1.1l5.85,0c0.86,0 1.56,-0.7 1.52,-1.54c-0.04,-0.8 -0.74,-1.42 -1.56,-1.42l-4.45,0c-0.31,-0.3 -0.64,-0.59 -0.99,-0.85c-1.21,-0.87 -2.71,-1.39 -4.35,-1.39c-2.89,0 -5.77,1.79 -6.98,4.16l4.68,7.88l8.77,0c1.72,0 3.41,-0.44 4.89,-1.27c0.53,-0.28 1.07,-0.63 1.68,-1.04c2.52,-1.77 7.66,-5.43 7.66,-5.43c0.72,-0.49 0.88,-1.48 0.37,-2.17z" fill="#4AB5E3" id="Vector_3"/>
   </g>
  </g>
 </g>
</svg>