<?xml version="1.0"?>
<svg width="80" height="76" xmlns="http://www.w3.org/2000/svg" xmlns:svg="http://www.w3.org/2000/svg">
 <defs>
  <filter color-interpolation-filters="sRGB" filterUnits="userSpaceOnUse" height="76" id="filter0_dd_2_384" width="80" x="0" y="0">
   <feFlood flood-opacity="0" result="BackgroundImageFix"/>
   <feColorMatrix in="SourceAlpha" result="hardAlpha" type="matrix" values="0 0 0 0 0 0 0 0 0 0 0 0 0 0 0 0 0 0 127 0"/>
   <feOffset dx="4" dy="2"/>
   <feGaussianBlur stdDeviation="8"/>
   <feColorMatrix type="matrix" values="0 0 0 0 0.534167 0 0 0 0 0.645967 0 0 0 0 0.749167 0 0 0 0.48 0"/>
   <feBlend in2="BackgroundImageFix"/>
   <feColorMatrix in="SourceAlpha" result="hardAlpha" type="matrix" values="0 0 0 0 0 0 0 0 0 0 0 0 0 0 0 0 0 0 127 0"/>
   <feOffset dx="-4" dy="-2"/>
   <feGaussianBlur stdDeviation="8"/>
   <feColorMatrix type="matrix" values="0 0 0 0 1 0 0 0 0 1 0 0 0 0 1 0 0 0 1 0"/>
   <feBlend in2="effect1_dropShadow_2_384"/>
   <feBlend in="SourceGraphic" in2="effect2_dropShadow_2_384"/>
  </filter>
 </defs>
 <g class="layer">
  <title>Layer 1</title>
  <g id="svg_5">
   <g filter="url(#filter0_dd_2_384)" id="svg_1" opacity="0.1">
    <rect fill="#DA6464" height="75.53" id="svg_2" rx="8" width="79.79" x="0.15" y="0.15"/>
   </g>
   <path d="m34.64,46.75l0,7.29c0,0.51 0.34,0.96 0.86,1.11c0.14,0.06 0.26,0.08 0.4,0.08c0.38,0 0.76,-0.19 1,-0.49l4.51,-5.82l-6.76,-2.17z" fill="#DA6464" id="svg_3"/>
   <path d="m59.47,19.26c-0.4,-0.26 -0.9,-0.3 -1.32,-0.09l-37.38,18.49c-0.46,0.23 -0.72,0.66 -0.68,1.13c0.04,0.47 0.38,0.89 0.84,1.04l10.39,3.36l22.14,-17.92l-17.11,19.54l17.41,5.63c0.14,0.04 0.26,0.08 0.4,0.08c0.24,0 0.46,-0.08 0.66,-0.19c0.32,-0.17 0.52,-0.47 0.58,-0.83l4.57,-29.1c0.08,-0.45 -0.12,-0.89 -0.5,-1.13z" fill="#DA6464" id="svg_4"/>
  </g>
 </g>
</svg>